<?xml version="1.0" encoding="UTF-8" standalone="no"?>
<!DOCTYPE svg PUBLIC "-//W3C//DTD SVG 1.1//EN"
 "http://www.w3.org/Graphics/SVG/1.1/DTD/svg11.dtd">
<!-- Generated by graphviz version 2.43.0 (0)
 -->
<!-- Title: geometry.c Pages: 1 -->
<svg width="223pt" height="82pt"
 viewBox="0.00 0.00 222.50 82.00" xmlns="http://www.w3.org/2000/svg" xmlns:xlink="http://www.w3.org/1999/xlink">

<svg id="main" version="1.1" xmlns="http://www.w3.org/2000/svg" xmlns:xlink="http://www.w3.org/1999/xlink" xml:space="preserve" onload="init(evt)">
<style type="text/css"><![CDATA[
.node, .edge {opacity: 0.7;}
.node.selected, .edge.selected {opacity: 1;}
.edge:hover path { stroke: red; }
.edge:hover polygon { stroke: red; fill: red; }
]]></style>
<script type="application/ecmascript" xlink:href="svg.min.js"/>
<svg id="graph" class="graph">
<g id="graph0" class="graph" transform="scale(1 1) rotate(0) translate(4 78)">
<title>geometry.c</title>
<!-- Node1 -->
<g id="Node000001" class="node">
<title>Node1</title>
<g id="a_Node000001"><a xlink:title="Implementation for the sample geometry helpers.">
<polygon fill="#999999" stroke="#666666" points="150,-74 79,-74 79,-55 150,-55 150,-74"/>
<text text-anchor="middle" x="114.5" y="-62" font-family="Helvetica,sans-Serif" font-size="10.00">geometry.c</text>
</a>
</g>
</g>
<!-- Node2 -->
<g id="Node000002" class="node">
<title>Node2</title>
<g id="a_Node000002"><a xlink:href="geometry_8h.html" target="_top" xlink:title="Geometry utility helpers that exercise the C pipeline.">
<polygon fill="white" stroke="#666666" points="71,-19 0,-19 0,0 71,0 71,-19"/>
<text text-anchor="middle" x="35.5" y="-7" font-family="Helvetica,sans-Serif" font-size="10.00">geometry.h</text>
</a>
</g>
</g>
<!-- Node1&#45;&gt;Node2 -->
<g id="edge1_Node000001_Node000002" class="edge">
<title>Node1&#45;&gt;Node2</title>
<g id="a_edge1_Node000001_Node000002"><a xlink:title=" ">
<path fill="none" stroke="#63b8ff" d="M101.81,-54.98C89.67,-46.84 71.14,-34.41 56.75,-24.76"/>
<polygon fill="#63b8ff" stroke="#63b8ff" points="58.68,-21.84 48.42,-19.17 54.78,-27.65 58.68,-21.84"/>
</a>
</g>
</g>
<!-- Node3 -->
<g id="Node000003" class="node">
<title>Node3</title>
<g id="a_Node000003"><a xlink:title=" ">
<polygon fill="#e0e0e0" stroke="#999999" points="140,-19 89,-19 89,0 140,0 140,-19"/>
<text text-anchor="middle" x="114.5" y="-7" font-family="Helvetica,sans-Serif" font-size="10.00">math.h</text>
</a>
</g>
</g>
<!-- Node1&#45;&gt;Node3 -->
<g id="edge2_Node000001_Node000003" class="edge">
<title>Node1&#45;&gt;Node3</title>
<g id="a_edge2_Node000001_Node000003"><a xlink:title=" ">
<path fill="none" stroke="#63b8ff" d="M114.5,-54.75C114.5,-47.8 114.5,-37.85 114.5,-29.13"/>
<polygon fill="#63b8ff" stroke="#63b8ff" points="118,-29.09 114.5,-19.09 111,-29.09 118,-29.09"/>
</a>
</g>
</g>
<!-- Node4 -->
<g id="Node000004" class="node">
<title>Node4</title>
<g id="a_Node000004"><a xlink:title=" ">
<polygon fill="#e0e0e0" stroke="#999999" points="214.5,-19 158.5,-19 158.5,0 214.5,0 214.5,-19"/>
<text text-anchor="middle" x="186.5" y="-7" font-family="Helvetica,sans-Serif" font-size="10.00">stddef.h</text>
</a>
</g>
</g>
<!-- Node1&#45;&gt;Node4 -->
<g id="edge3_Node000001_Node000004" class="edge">
<title>Node1&#45;&gt;Node4</title>
<g id="a_edge3_Node000001_Node000004"><a xlink:title=" ">
<path fill="none" stroke="#63b8ff" d="M126.07,-54.98C136.92,-47 153.38,-34.88 166.38,-25.31"/>
<polygon fill="#63b8ff" stroke="#63b8ff" points="168.74,-27.92 174.72,-19.17 164.59,-22.28 168.74,-27.92"/>
</a>
</g>
</g>
</g>
</svg>
</svg>

<style type='text/css'>
<![CDATA[
[data-mouse-over-selected='false'] { opacity: 0.7; }
[data-mouse-over-selected='true']  { opacity: 1.0; }
]]>
</style>
<script type="application/ecmascript"><![CDATA[
document.addEventListener('DOMContentLoaded', (event) => {
  highlightEdges();
  highlightAdjacentNodes();
});
]]></script>
</svg>
